<svg id="Layer_1" data-name="Layer 1" xmlns="http://www.w3.org/2000/svg" viewBox="0 0 477.475 99.486"><path d="M92.589,445.279l14.765,39.235,14.731-39.235h11.5v51.188h-8.859V479.592l.879-22.57-15.118,39.445H104.12l-15.082-39.41.879,22.535v16.875H81.058V445.279Z" transform="translate(-59.282 -420.741)"/><path d="M184.944,472.209a31.409,31.409,0,0,1-2.6,13.2,19.679,19.679,0,0,1-7.436,8.719,21.813,21.813,0,0,1-22.219,0,19.973,19.973,0,0,1-7.523-8.666,30.409,30.409,0,0,1-2.689-12.973v-2.882a31.126,31.126,0,0,1,2.654-13.219,19.951,19.951,0,0,1,7.488-8.772,21.858,21.858,0,0,1,22.184-.035,19.694,19.694,0,0,1,7.47,8.649,31.054,31.054,0,0,1,2.672,13.13Zm-8.894-2.672q0-8.508-3.217-13.043a11.351,11.351,0,0,0-18.141-.017q-3.252,4.517-3.322,12.779v2.953q0,8.438,3.287,13.043a10.587,10.587,0,0,0,9.123,4.606,10.46,10.46,0,0,0,9.088-4.5q3.182-4.5,3.182-13.149Z" transform="translate(-59.282 -420.741)"/><path d="M193.8,496.467V445.279h15.117a23.709,23.709,0,0,1,12.041,3.024,20.619,20.619,0,0,1,8.139,8.578,27.239,27.239,0,0,1,2.882,12.727v2.566a27.112,27.112,0,0,1-2.9,12.8,20.375,20.375,0,0,1-8.262,8.508,24.811,24.811,0,0,1-12.287,2.988Zm8.894-44.016v36.914h5.8q7,0,10.74-4.377t3.815-12.568v-2.848q0-8.331-3.621-12.726t-10.512-4.395Z" transform="translate(-59.282 -420.741)"/><path d="M278.284,445.279v34.207q0,8.157-5.221,12.92t-13.9,4.764q-8.788,0-13.957-4.693t-5.168-13.026V445.279h8.86v34.243q0,5.132,2.6,7.839t7.664,2.707q10.264,0,10.266-10.828V445.279Z" transform="translate(-59.282 -420.741)"/><path d="M296.671,489.365h23.238v7.1H287.776V445.279h8.895Z" transform="translate(-59.282 -420.741)"/><path d="M356.05,484.549H336.222l-4.149,11.918h-9.246l19.336-51.188h7.981l19.371,51.188h-9.282Zm-17.332-7.172h14.836l-7.418-21.234Z" transform="translate(-59.282 -420.741)"/><path d="M394.124,476.779H384.21v19.688h-8.895V445.279h18q8.86,0,13.676,3.976t4.817,11.507a14.408,14.408,0,0,1-2.479,8.6,15.762,15.762,0,0,1-6.908,5.33l11.5,21.317v.456H404.39Zm-9.914-7.171h9.141a10.165,10.165,0,0,0,7.031-2.268,7.909,7.909,0,0,0,2.531-6.2,8.416,8.416,0,0,0-2.338-6.363q-2.337-2.25-6.978-2.321H384.21Z" transform="translate(-59.282 -420.741)"/><path d="M429.632,496.467h-8.86V445.279h8.86Z" transform="translate(-59.282 -420.741)"/><path d="M448.933,489.365h27.351v7.1H438.175V490.7l26.472-38.25h-26.3v-7.172H475.44V450.9Z" transform="translate(-59.282 -420.741)"/><path d="M513.831,473.615H492.808v15.75h24.574v7.1H483.913V445.279h33.223v7.172H492.808v14.133h21.023Z" transform="translate(-59.282 -420.741)"/><line x1="3.409" y1="0.024" x2="2.5" y2="94.584" fill="none" stroke="#1d1d1b" stroke-miterlimit="10" stroke-width="5"/><line x1="474.975" y1="4.795" x2="474.15" y2="97.722" fill="none" stroke="#1d1d1b" stroke-miterlimit="10" stroke-width="5"/><line x1="0.01" y1="96.986" x2="179.648" y2="96.467" fill="none" stroke="#1d1d1b" stroke-miterlimit="10" stroke-width="5"/><line x1="297.143" y1="96.128" x2="476.653" y2="95.609" fill="none" stroke="#1d1d1b" stroke-miterlimit="10" stroke-width="5"/><line x1="0.948" y1="2.55" x2="477.47" y2="2.755" fill="none" stroke="#1d1d1b" stroke-miterlimit="10" stroke-width="5"/></svg>